<svg xmlns="http://www.w3.org/2000/svg" width="2400" height="2400" viewBox="0 0 2400 2400"><path transform="translate(77 0)" d="M 1481 337.999 L 1481 675.997 1115.250 676.249 L 749.500 676.500 749.249 1031.750 L 748.997 1387 374.499 1387 L 0 1387 0 1893.500 L 0 2400 607.550 2400 C 1109.417 2400, 1214.960 2399.771, 1214.300 2398.685 C 1213.860 2397.961, 1153.831 2331.249, 1080.902 2250.435 C 1007.973 2169.621, 905.263 2055.800, 852.659 1997.500 L 757.014 1891.500 757.007 1644.750 L 757 1398 857.250 1397.997 C 956.185 1397.995, 981.248 1397.450, 1020.500 1394.450 C 1195.353 1381.085, 1322.545 1333.645, 1405.013 1251.035 C 1445.023 1210.956, 1471.391 1162.917, 1481.912 1110.935 C 1487.712 1082.281, 1487.362 1095.636, 1487.954 880.500 L 1488.500 682.500 1778 681.897 C 1937.225 681.565, 2107.662 681.228, 2156.750 681.147 L 2246 681 2246 340.500 L 2246 0 1863.500 0 L 1481 0 1481 337.999 M 2244.995 1069.750 C 2244.992 1072.912, 2244.332 1082.953, 2243.529 1092.062 C 2229.113 1255.469, 2167.758 1388.743, 2056.858 1497.548 C 1944.977 1607.315, 1794.144 1695.831, 1616.554 1755.940 C 1589.685 1765.034, 1570.015 1771.172, 1539.588 1779.955 C 1528.086 1783.275, 1518.494 1786.173, 1518.272 1786.395 C 1518.050 1786.617, 1646.679 1924.657, 1804.115 2093.149 L 2090.362 2399.500 2168.181 2399.756 L 2246 2400.012 2246 1732.006 C 2246 1364.603, 2245.775 1064, 2245.500 1064 C 2245.225 1064, 2244.998 1066.588, 2244.995 1069.750" fill="#0A0A0A" fill-rule="evenodd"/></svg>
